<?xml version="1.0" encoding="UTF-8" standalone="no"?><!DOCTYPE svg PUBLIC "-//W3C//DTD SVG 1.1//EN" "http://www.w3.org/Graphics/SVG/1.1/DTD/svg11.dtd"><svg width="100%" height="100%" viewBox="0 0 3667 680" version="1.1" xmlns="http://www.w3.org/2000/svg" xmlns:xlink="http://www.w3.org/1999/xlink" xml:space="preserve" xmlns:serif="http://www.serif.com/" style="fill-rule:evenodd;clip-rule:evenodd;stroke-linecap:round;stroke-linejoin:round;stroke-miterlimit:1.5;"><g id="Fundo"><rect x="-16.1" y="-26.73" width="3708.15" height="737.32" style="fill:#001f4b;"/><path d="M910.15,239.66l19.82,81.28c2.42,9.94 7.96,19.05 15.96,26.24c8,7.2 18.11,12.18 29.16,14.36l90.3,17.84l-90.3,17.84c-11.04,2.18 -21.16,7.17 -29.16,14.36c-8,7.2 -13.53,16.3 -15.96,26.24l-19.82,81.28l-19.82,-81.28c-2.42,-9.94 -7.96,-19.05 -15.96,-26.24c-8,-7.2 -18.11,-12.18 -29.16,-14.36l-90.3,-17.84l90.3,-17.84c11.04,-2.18 21.16,-7.17 29.16,-14.36c8,-7.2 13.53,-16.3 15.96,-26.24l19.82,-81.28Z" style="fill:url(#_Linear1);stroke:url(#_Linear2);stroke-width:0.83px;"/><path d="M749.12,372.66c-1.72,-4.01 -41.22,-234.62 -42.95,-236.64c-0.33,-0.39 -1.69,-1.55 -3.41,-0.02c-2.03,1.8 -85.24,449.92 -98.98,471.23c-6.71,10.41 -6.84,11.1 -17.61,17.2c-11.75,6.65 -49.01,10.95 -61.38,-35.32c-10.18,-38.08 -56.38,-344.17 -61.36,-378.48c-0.62,-4.31 -7.7,-53.12 -8.18,-53.81c-0.64,-0.91 -1.82,-1.57 -2.93,-1.59c-5.37,-0.13 -3.33,2.86 -8.92,25.93c-4.52,18.64 -46.46,243.95 -57.16,275.36c-1.63,4.78 -14.35,53.11 -58.89,44.48c-37.17,-7.2 -43.36,-52.78 -58.92,-111.33c-0.71,-2.66 -12.77,-54.92 -15.08,-62.95c-1.49,-5.18 -5.66,-17.07 -8.43,-19.28c-5.24,-4.19 -9.25,0.99 -10.04,2.71c-11.96,25.87 -16.65,75.62 -49.42,87.85c-21.22,7.91 -21.88,5.33 -91.69,5.66c-8.43,0.04 -36.93,1.92 -35.6,-26.37c0.73,-15.43 16.47,-18.45 18.54,-18.84c17.86,-3.41 79.72,1.75 91.38,-7.25c23.75,-18.34 14.69,-96.67 71.51,-99.19c46.15,-2.04 54.25,50.16 60.41,74.6c8.99,35.71 30.12,117.59 32.63,120.23c1.02,1.07 5.89,1.55 6.79,0.86c7.97,-6.07 30.37,-141.39 42.2,-195.54c4.87,-22.29 18.95,-114.01 33.4,-137.32c4.26,-6.87 12.59,-21.91 41.11,-19.82c35.4,2.6 42.47,42.47 50.48,86.17c0.85,4.64 57.52,382.07 58.45,383c5.53,5.49 7.49,-3.22 7.64,-3.88c0.59,-2.61 78.35,-419.19 90.7,-458.59c3.37,-10.75 12.24,-48.39 46.81,-44.24c10.7,1.28 18.72,6 23.26,12.96c10.34,15.86 50.94,248.25 56.55,277.39c0.19,1.01 3.47,18.75 3.47,18.75c0,0 -0.64,3.19 -2.79,4.11c-1.85,0.8 -21.61,5.04 -33.25,6.62c-7.79,1.05 -7.43,-2.56 -8.33,-4.65Z" style="fill:url(#_Linear3);"/><path d="M810.55,576.93c-19.45,-22.55 -59.55,-189.97 -57.27,-195.38c0.89,-2.11 38.38,6.31 40.21,7.97c3.17,2.88 2.96,6.71 3.69,9.19c1.05,3.62 22.7,85.17 29.8,107.57c5.84,18.4 5.52,18.48 6.15,20.04c0.31,0.78 4.04,9.96 9.62,4.1c2.82,-2.97 21.62,-75.41 22.32,-78.05c13.24,-50.33 20.29,-24.1 26.02,-4.78c2.26,7.62 6.62,26.76 6.65,30.09c0.01,1.47 -28.81,91.93 -32.89,99.74c-9.27,17.73 -37.49,18.97 -54.29,-0.5Z" style="fill:url(#_Linear4);"/><g><path d="M1618.7,208.6c3.5,-0.04 63.31,-6.74 111.52,44.45c21.52,22.84 34.22,56.04 36.59,74.29c3.19,24.6 2.4,34.29 2.15,37.26c-3.07,37.36 -8.05,45.12 -9.77,49.52c-26.01,66.52 -85.01,84.1 -86.01,84.48c-5.02,1.91 -26.35,10.01 -66.81,6.2c-6.65,-0.63 -40.87,-3.86 -75.42,-35.72c-38.16,-35.18 -46.22,-82.94 -46.71,-91.92c-2.81,-50.82 4.65,-62.43 7.44,-71.51c13.74,-44.69 53.24,-84.05 102.4,-93.4c12.27,-2.33 12.1,-3.22 24.62,-3.65Zm0.15,57.71c-12.97,1.82 -27.83,3.96 -47.28,21.8c-21.07,19.33 -35.67,53.23 -26.48,88.62c11.2,43.12 35.82,58.15 57.18,66.54c3.41,1.34 31.52,9.2 54.72,-2.13c4.94,-2.41 16.72,-5.72 33.4,-25.93c9.18,-11.12 16.22,-30.78 16.85,-33.74c3.16,-14.88 2.73,-39.35 -0.53,-50.36c-1.68,-5.67 -11.78,-39.75 -46.71,-57.34c-12.08,-6.08 -26.45,-7.3 -28.82,-7.5c-0.98,-0.08 -0.91,0 -12.32,0.02Zm-239.59,53.97c-1.32,0.04 -1.14,0.52 -2.36,0.55c-2.44,0.07 -2.38,-0.51 -2.57,-0.41c-0.85,0.47 -0.94,1.69 -1.34,2.57c-1.21,2.66 -1.18,2.58 -2.62,5.21c-4.3,7.87 -6.86,12.55 -59.43,95.06c-8.25,12.95 -8.61,16.21 -12.98,15.95c-3.18,-0.19 -3.29,-2.27 -9,-11.75c-24.15,-40.05 -24.57,-39.71 -26.63,-43.21c-24.27,-41.45 -25.03,-40.94 -27.05,-44.6c-10.54,-19.15 -9.72,-20.4 -12.44,-20.61c-4.79,-0.37 -4.04,7.33 -3.97,8.04c0.8,8.23 1.25,8.15 1.26,37.49c0.05,131 0.69,131.49 -1.16,133.5c-2.96,3.22 -8.86,2.3 -41.91,2.48c-11.85,0.07 -15.92,0.84 -15.71,-10.97c1.56,-88.27 0.54,-169.94 0.86,-183.34c0.29,-12.49 -0.41,-53.93 -0.45,-83.33c-0.01,-7.62 -0.31,-9.29 7.13,-10.97c0.26,-0.06 11.37,-0.06 12.36,-0.06c37.76,-0.02 37.98,-0.15 42.15,1.97c4.15,2.1 19.92,32.77 22.37,37.09c45.71,80.57 44.52,81.16 49.03,87.83c0.36,0.53 3.74,5.53 7.79,1.51c4.21,-4.18 3.23,-4.78 6.04,-9.96c14.52,-26.75 20.29,-36.24 20.99,-37.5c35.52,-64.59 35.96,-64.34 38.93,-70.02c6.96,-13.33 10.45,-10.6 50.2,-10.72c13.28,-0.04 18.57,-2.43 18.77,10.86c0.16,10.66 -0.09,10.57 -0.02,133.31c0.01,9.33 0.07,116.27 0.06,116.67c-0.77,22.08 1.57,25.59 -6.46,27.89c-0.63,0.18 -7.13,-0.19 -33.18,-0.13c-13.21,0.03 -18.34,2.13 -18.51,-11.06c-0.21,-16.73 0.08,-16.66 -0.31,-33.37c-0.01,-0.28 0.27,-114.9 0.37,-116.68c0.99,-18.68 -0.12,-18.62 -0.21,-19.3Zm652.77,-0.1c-5.33,6.76 -4.9,9.43 -14.12,23.04c-6.03,8.89 -29.3,46.86 -31.81,50.96c-8.25,13.46 -23.99,37.45 -25.79,41.17c-1.96,4.06 -0.85,4.9 -4.62,7.29c-4.52,2.87 -10.46,-12.82 -17.37,-23.06c-8.02,-11.88 -35.52,-58.44 -41.24,-66.96c-2.51,-3.74 -7.67,-12.65 -12.49,-20.86c-1.53,-2.62 -1.43,-2.56 -2.6,-5.28c-0.22,-0.51 -2.06,-4.81 -4.81,-4.98c-4.43,-0.27 -4.41,1.14 -4.22,5.6c0.66,15.18 1.2,15.11 1.2,45.83c0.01,122.78 0.31,123.16 -1.27,124.98c-2.85,3.3 -5.67,2.83 -41.64,2.79c-0.93,-0 -9.97,-0.01 -11.55,-0.68c-3.61,-1.53 -3.64,-9.55 -3.64,-10.44c-0.07,-21.65 -0.86,-266.92 0.08,-270.63c2.38,-9.36 5.49,-6.77 15.11,-6.8c43.13,-0.15 46.03,-0.9 50.15,6.53c27.55,49.74 28.1,49.35 55.72,99.12c5.91,10.65 6.19,10.41 11.94,21.15c3.9,7.29 7.72,8.04 11.17,0.52c4.63,-10.08 68.22,-123.46 68.34,-123.6c4.23,-4.68 12.1,-3.7 44.35,-3.69c11.86,0 11.86,-0.06 12.33,0.04c7.29,1.64 7.02,3.25 7.08,10.73c0,0.12 -0.05,265.85 -0.06,266.63c-0.11,13.71 -5.56,11.32 -19.34,11.3c-27.66,-0.04 -34.4,1.01 -36.76,-3.33c-1.43,-2.64 -0.69,-2.87 -0.56,-95.45c0.09,-65.4 0.61,-69.51 1.37,-75.5c0.32,-2.55 1.46,-3.15 -0.78,-4.42c-1.34,-0.76 -2.83,-1.23 -4.17,-1.99Zm1439.03,-0.21c-1.41,0.03 -1.27,0.58 -2.64,0.61c-2.67,0.06 -2.59,-0.59 -2.79,-0.49c-0.84,0.41 -0.92,1.64 -1.32,2.5c-1.25,2.72 -1.41,2.56 -3.07,5.11c-0.4,0.61 -0.26,0.79 -4.41,8.09c-1.27,2.22 -53.32,84.48 -58.1,91.81c-5.64,8.63 -4.61,10.57 -9.12,10.55c-2.77,-0.01 -2.97,-0.13 -4.33,-2.59c-1.66,-3 -9.03,-16.29 -21.98,-36.79c-8.51,-13.48 -8.77,-13.23 -9.49,-14.41c-31.98,-52.96 -32.54,-52.64 -34.62,-57.6c-1.76,-4.18 -2.31,-3.8 -4,-5.7c-0.37,-0.42 -0.36,-1.34 -0.92,-1.42c-5.08,-0.75 -4.62,6.65 -4.57,7.34c0.05,0.84 1.67,0.78 1.83,83.45c0.17,84.18 1.4,84.66 -0.98,87.6c-2.11,2.61 -15.43,2.59 -16.79,2.59c-5.91,-0.01 -32.78,0.01 -33.22,-0.01c-1.87,-0.09 -6.65,-0.5 -7.3,-6.95c-0.08,-0.8 0.4,-249.04 0.44,-270.7c0.02,-11.41 3.65,-10.95 15.09,-10.89c32.58,0.19 39.76,-1.2 45.97,2.37c2.99,1.72 7.96,11.42 8.51,12.49c7.29,14.22 16.76,29.31 34.46,61.91c1.64,3.01 1.79,2.84 21.09,37.29c8.07,14.4 7.53,14.72 8.52,15.76c0.59,0.62 1.71,-0.17 2.57,-0.14c0.86,0.02 1.8,0.66 2.58,0.28c0.15,-0.08 5.64,-9.82 5.98,-10.46c17.5,-32.6 58.78,-105.78 62.39,-112.54c4.57,-8.56 13.69,-6.93 24.58,-6.9c30.6,0.09 39.98,-1.79 41.26,6.7c0.79,5.27 0.12,5.29 -0.11,66.61c-0.5,134.63 0.47,134.57 1.02,204.17c0.05,5.75 1.08,6.62 -3.64,9.99c-2.44,1.74 -2.76,0.89 -34.38,1.12c-13.7,0.1 -19.27,2.63 -19.35,-11.13c-0.82,-144.16 -0.24,-149.45 1.17,-162.37c0.62,-5.69 -0.26,-5.66 -0.34,-7.24Zm-1000.85,169.64c-0.54,3.11 2.31,10.28 -9.83,10.82c-11.54,0.52 -38.27,0.22 -41.59,0.18c-9.09,-0.1 -9.38,-5.37 -9.43,-11c-0.05,-5.73 0,-265.52 0.02,-266.7c0.01,-0.65 0.1,-6.16 1.49,-8c1.87,-2.47 7.25,-2.82 7.93,-2.87c3.37,-0.22 34.44,0.03 37.43,0.05c15.13,0.12 13.52,4.94 36.31,36.65c13.2,18.36 12.36,18.84 25.41,37.21c12.61,17.76 53.08,77.06 57.66,83.79c8.14,11.93 10.9,18.46 11.04,18.57c0.89,0.71 5.41,0.82 5.91,0.34c2.08,-2.01 0.04,-2.58 0.12,-28.23c0.04,-13.61 -0.15,-140.65 0.06,-141.83c1.22,-6.79 9.29,-6.66 9.39,-6.67c0.63,-0.04 14.32,0.15 37.46,0.03c1.85,-0.01 6.71,-0.57 9.13,1.63c4.75,4.3 2.22,10.06 2.66,67.69c0.13,16.67 -0.28,16.57 0.45,208.33c0.05,13.65 -6.04,10.83 -28.93,11.02c-11.39,0.1 -23.85,0.93 -27.71,-3.96c-1.81,-2.29 -26.38,-38.37 -28.65,-41.71c-4.32,-6.35 -38.59,-56.67 -54.65,-78.9c-1.13,-1.57 -9.24,-12.78 -13.7,-19.96c-4.03,-6.48 -15.22,-19.65 -21.7,-32.67c-3.4,-6.83 -8.27,-8.64 -9.15,-1.04c-0.43,3.69 2.05,3.61 2.19,46.41c0.16,49.21 0.61,111.18 0.68,120.85Zm-168.11,-106.55c-6.33,0 -76.09,0.03 -79.13,0.07c-8.14,0.12 -9.88,3.31 -10.01,10.59c-0.07,3.7 -0.78,41.92 0.45,46.24c1.45,5.12 8.56,5.36 9.43,5.38c3.56,0.12 128.31,-0.1 129.06,0.08c7.3,1.71 6.92,3.38 6.96,10.86c0.02,2.99 0.18,35.76 -0.04,37.33c-1.24,8.75 -9.79,7.43 -10.9,7.44c-15.26,0.12 -186.11,1.48 -190.73,-0.74c-5.15,-2.48 -2.89,-4.58 -2.94,-110.72c-0.07,-149.51 -0.44,-149.5 -0.4,-162.5c0.01,-2.72 -0.37,-5.48 0.07,-8.16c0.78,-4.83 1.22,-5.18 6.01,-6.37c3.46,-0.86 3.52,-0.36 104.68,-0.42c71.89,-0.04 72.81,-0.03 79.14,0.03c13.35,0.13 10.26,5.79 10.58,19.08c0.3,12.51 -0.4,12.42 0.02,24.99c0.45,13.74 -5.16,11.67 -18.91,11.65c-9,-0.02 -106.08,-0.18 -112.51,-0.1c-12.63,0.16 -10.75,4.99 -10.76,17.63c-0.03,36.12 -2.07,41.91 10.75,42.23c10.02,0.25 104.62,-0.65 107.96,0.53c4.11,1.45 4.46,6.57 4.51,7.25c0.04,0.58 0.09,40.36 -0.15,41.63c-1.41,7.42 -9.42,5.99 -33.13,6Zm718.52,-147.64c-0.01,149.61 0.6,149.61 1.39,154.32c1.65,9.83 3.49,34.02 26.27,49.32c3.76,2.53 12.45,9.65 41.23,7.75c21.71,-1.44 42.99,-21.12 44.85,-48.96c2.12,-31.85 0.13,-176.43 0.55,-179.15c1.07,-6.85 8.01,-6.96 8.92,-6.97c3.33,-0.05 3.3,0.09 41.57,0.51c13.45,0.15 11.01,5.53 10.95,19.02c-0.73,171.53 1.19,171.82 -2.85,187.44c-1.04,4.02 -4.67,33.12 -32.71,58.79c-26.55,24.3 -57.5,26.77 -62.97,27.2c-40.05,3.19 -58.15,-3.67 -62.88,-5.46c-24.16,-9.15 -48.44,-24.9 -65.1,-64.26c-9.94,-23.49 -7.93,-60.97 -8.53,-153.71c-0.03,-4.99 -0.38,-59.97 -0.13,-62.42c0.64,-6.1 4.65,-7.19 7.67,-7.31c0.96,-0.04 44.94,0.41 45.53,0.58c4.69,1.31 5.19,1.47 6.1,6.31c0.13,0.68 0.15,15.65 0.16,17.01Zm-183.3,50.01c-0,111.19 -0.02,111.16 0.3,120.82c0.17,5.12 0.3,61.34 0.31,66.67c0.02,10.15 0.52,22.74 -2.05,25.44c-2.18,2.28 -7.78,1.98 -46.28,2.13c-0.73,0 -6.84,0.03 -8.88,-2.02c-2.56,-2.55 -1.92,-3.2 -1.89,-83.89c0.06,-137.02 0.09,-137.03 0.02,-137.68c-0.65,-5.77 -1.41,-8.78 -10.05,-9.04c-15.28,-0.45 -65.9,0.87 -69.62,-1.09c-4.69,-2.48 -2.6,-12.78 -3.48,-43.84c-0.26,-9.26 1.35,-10.51 10.6,-10.87c2.45,-0.09 202.94,-0.17 203.99,0.07c7.27,1.68 6.99,3.29 7.02,10.79c0.14,37.77 0.48,37.79 -0.61,40.87c-1.83,5.14 -7.75,4.02 -64.59,4.05c-10.27,0.01 -13.72,-1.23 -14.44,9.02c-0.05,0.68 -0.02,0.63 -0.33,8.54Z" style="fill:#fff;"/></g></g><defs><linearGradient id="_Linear1" x1="0" y1="0" x2="1" y2="0" gradientUnits="userSpaceOnUse" gradientTransform="matrix(1007.281231,0,0,571.347505,58.105944,342.836793)"><stop offset="0" style="stop-color:#01bafb;stop-opacity:1"/><stop offset="1" style="stop-color:#03f3d0;stop-opacity:1"/></linearGradient><linearGradient id="_Linear2" x1="0" y1="0" x2="1" y2="0" gradientUnits="userSpaceOnUse" gradientTransform="matrix(1007.281231,0,0,571.347505,58.105944,342.836793)"><stop offset="0" style="stop-color:#9b0095;stop-opacity:1"/><stop offset="0.56" style="stop-color:#7b14a9;stop-opacity:1"/><stop offset="1" style="stop-color:#0061f7;stop-opacity:1"/></linearGradient><linearGradient id="_Linear3" x1="0" y1="0" x2="1" y2="0" gradientUnits="userSpaceOnUse" gradientTransform="matrix(1007.281231,0,0,571.347505,58.105944,342.836793)"><stop offset="0" style="stop-color:#01bafb;stop-opacity:1"/><stop offset="0.54" style="stop-color:#02e3dc;stop-opacity:1"/><stop offset="1" style="stop-color:#03f3d0;stop-opacity:1"/></linearGradient><linearGradient id="_Linear4" x1="0" y1="0" x2="1" y2="0" gradientUnits="userSpaceOnUse" gradientTransform="matrix(1007.281231,0,0,571.347505,58.105944,342.836793)"><stop offset="0" style="stop-color:#01bafb;stop-opacity:1"/><stop offset="1" style="stop-color:#03f3d0;stop-opacity:1"/></linearGradient></defs></svg>